<svg width="25" height="24" viewBox="0 0 25 24" fill="none" xmlns="http://www.w3.org/2000/svg">
<path fill-rule="evenodd" clip-rule="evenodd" d="M8.78288 3.24219H15.6848L17.4168 5.94755H22.2344L22.2344 20.7582H2.23439L2.23438 5.94755H7.05187L8.78288 3.24219ZM9.60389 4.74219L7.87288 7.44755H3.73438L3.73438 19.2582H20.7344L20.7344 7.44755H16.596L14.864 4.74219H9.60389Z" fill="#AAAAAA"/>
<path fill-rule="evenodd" clip-rule="evenodd" d="M17.4121 9.78516H18.9211V11.2852H17.4121V9.78516Z" fill="#AAAAAA"/>
<path fill-rule="evenodd" clip-rule="evenodd" d="M8.30469 13.2142C8.30469 11.0439 10.0635 9.28516 12.2337 9.28516C14.4039 9.28516 16.1627 11.0439 16.1627 13.2142C16.1627 15.3844 14.4039 17.1432 12.2337 17.1432C10.0635 17.1432 8.30469 15.3844 8.30469 13.2142ZM12.2337 10.7852C10.8919 10.7852 9.80469 11.8724 9.80469 13.2142C9.80469 14.5559 10.8919 15.6432 12.2337 15.6432C13.5755 15.6432 14.6627 14.5559 14.6627 13.2142C14.6627 11.8724 13.5755 10.7852 12.2337 10.7852Z" fill="#AAAAAA"/>
</svg>
