<svg width="12" height="12" viewBox="0 0 12 12" fill="none" xmlns="http://www.w3.org/2000/svg">
<path d="M10.9721 1.68754C11.1673 1.49228 11.1673 1.17569 10.9721 0.980431C10.7768 0.785169 10.4602 0.785169 10.265 0.980431L5.95183 5.29355L1.63871 0.980433C1.44345 0.785171 1.12686 0.785171 0.931603 0.980433C0.736341 1.1757 0.736341 1.49228 0.931603 1.68754L5.24472 6.00066L0.931621 10.3138C0.736359 10.509 0.736359 10.8256 0.931621 11.0209C1.12688 11.2161 1.44347 11.2161 1.63873 11.0209L5.95183 6.70777L10.2649 11.0209C10.4602 11.2161 10.7768 11.2161 10.972 11.0209C11.1673 10.8256 11.1673 10.509 10.972 10.3138L6.65894 6.00066L10.9721 1.68754Z" fill="#F2F2F2"/>
</svg>
