<svg width="24" height="25" viewBox="0 0 24 25" fill="none" xmlns="http://www.w3.org/2000/svg">
<path d="M4 7.05171H20M10 17.64V11.287M14 17.64V11.287M16 21.8752H8C6.89543 21.8752 6 20.9271 6 19.7576V8.11054C6 7.52577 6.44772 7.05171 7 7.05171H17C17.5523 7.05171 18 7.52577 18 8.11054V19.7576C18 20.9271 17.1046 21.8752 16 21.8752ZM10 7.05171H14C14.5523 7.05171 15 6.57766 15 5.99289V4.93407C15 4.3493 14.5523 3.87524 14 3.87524H10C9.44772 3.87524 9 4.3493 9 4.93407V5.99289C9 6.57766 9.44772 7.05171 10 7.05171Z" stroke="#4A4A4A" stroke-width="1.5" stroke-linecap="round" stroke-linejoin="round"/>
</svg>
