<svg width="24" height="24" viewBox="0 0 24 24" fill="none" xmlns="http://www.w3.org/2000/svg">
<path fill-rule="evenodd" clip-rule="evenodd" d="M12.9329 6.22534L17.7944 11.0868L6.881 22.0002L2.0241 21.9956L2.01953 17.1387L12.9329 6.22534ZM3.52012 17.7595L3.52269 20.497L6.26026 20.4996L15.6731 11.0868L12.9329 8.34666L3.52012 17.7595Z" fill="#2D264B"/>
<path fill-rule="evenodd" clip-rule="evenodd" d="M12.9329 6.22546L17.7944 11.0869L6.881 22.0003L2.0241 21.9957L2.01953 17.1388L12.9329 6.22546ZM3.52012 17.7596L3.52269 20.4972L6.26026 20.4997L15.6731 11.0869L12.9329 8.34678L3.52012 17.7596Z" fill="#2D264B"/>
<path fill-rule="evenodd" clip-rule="evenodd" d="M13.4931 14.5537L9.4462 10.5069L10.5069 9.4462L14.5537 13.4931L13.4931 14.5537Z" fill="#2D264B"/>
<path fill-rule="evenodd" clip-rule="evenodd" d="M21.9805 22H11.9437V20.5H20.4805V3.5H3.51927V12.1964H2.01927V2H21.9805V22Z" fill="#2D264B"/>
</svg>
