<svg width="18" height="18" viewBox="0 0 18 18" fill="none" xmlns="http://www.w3.org/2000/svg">
<path fill-rule="evenodd" clip-rule="evenodd" d="M11.5237 1.59796L11.6137 1.64996C12.3918 2.09918 13.0407 2.47377 13.5158 2.84041C14.0173 3.2274 14.4153 3.6716 14.582 4.29378C14.7487 4.91596 14.6261 5.49966 14.3853 6.08555C14.1572 6.64063 13.7826 7.28946 13.3333 8.06754L9.45779 14.7803C9.16085 15.2956 8.92606 15.703 8.5687 16.01C8.21134 16.3171 7.77319 16.4879 7.21906 16.7038L7.06932 16.7623C6.0411 17.164 5.19355 17.4952 4.49949 17.6573C3.7736 17.8269 3.07274 17.848 2.41947 17.4709C1.7662 17.0937 1.43404 16.4762 1.21797 15.7628C1.01137 15.0806 0.874389 14.181 0.708204 13.0897L0.683946 12.9308C0.593917 12.3429 0.52273 11.8781 0.609964 11.4151C0.620869 11.3572 0.634089 11.3002 0.649458 11.2437C0.757039 10.8486 0.969884 10.4807 1.23045 10.0302L5.10606 3.31755C5.55528 2.53943 5.92987 1.89057 6.29651 1.41546C6.6835 0.913979 7.1277 0.515951 7.74988 0.349237C8.37207 0.182524 8.95576 0.305129 9.54165 0.545929C10.0967 0.774067 10.7456 1.1487 11.5237 1.59796ZM6.0041 4.7621L11.6333 8.0121L8.20983 13.9417C7.83687 14.5877 7.73023 14.7528 7.59115 14.8723C7.45206 14.9918 7.27271 15.0724 6.57794 15.3438C5.48147 15.7722 4.7347 16.062 4.15823 16.1967C3.60135 16.3268 3.34866 16.2753 3.16947 16.1718C2.99027 16.0684 2.81933 15.8753 2.65357 15.328C2.48198 14.7614 2.35954 13.9698 2.1823 12.806C2.06999 12.0686 2.05008 11.873 2.08403 11.6928C2.11798 11.5126 2.20771 11.3377 2.58067 10.6917L6.0041 4.7621ZM12.998 5.51533C12.8654 5.83777 12.6628 6.2169 12.3817 6.71216L6.75567 3.46397C7.04406 2.97294 7.27105 2.60785 7.48403 2.33187C7.76849 1.96325 7.9601 1.84583 8.13811 1.79813C8.31613 1.75043 8.54078 1.75632 8.97143 1.93332C9.42223 2.1186 9.98383 2.441 10.8187 2.923C11.6535 3.40501 12.2136 3.73017 12.5994 4.02793C12.968 4.31239 13.0854 4.50399 13.1331 4.68201C13.1808 4.86003 13.175 5.08467 12.998 5.51533Z" fill="#4A4A4A"/>
<path d="M10.1606 17.1263C10.1606 16.712 10.4964 16.3763 10.9106 16.3763H16.9106C17.3249 16.3763 17.6606 16.712 17.6606 17.1263C17.6606 17.5405 17.3249 17.8763 16.9106 17.8763H10.9106C10.4964 17.8763 10.1606 17.5405 10.1606 17.1263Z" fill="#4A4A4A"/>
</svg>
